<svg xmlns="http://www.w3.org/2000/svg" xmlns:xlink="http://www.w3.org/1999/xlink" width="512" zoomAndPan="magnify" viewBox="0 0 384 383.999986" height="512" preserveAspectRatio="xMidYMid meet" version="1.0"><defs><clipPath id="f47c81dd6b"><path d="M 58 52.800781 L 325 52.800781 L 325 331.050781 L 58 331.050781 Z M 58 52.800781 " clip-rule="nonzero"/></clipPath><clipPath id="f60e420036"><path d="M 17.183594 169 L 48 169 L 48 266 L 17.183594 266 Z M 17.183594 169 " clip-rule="nonzero"/></clipPath><clipPath id="a16e1879c4"><path d="M 336 169 L 366.683594 169 L 366.683594 266 L 336 266 Z M 336 169 " clip-rule="nonzero"/></clipPath></defs><g clip-path="url(#f47c81dd6b)"><path fill="#ff3131" d="M 265.835938 331.171875 L 117.957031 331.171875 C 85.390625 331.171875 58.96875 304.75 58.96875 272.390625 L 58.96875 176.535156 C 58.96875 143.96875 85.390625 117.546875 117.957031 117.546875 L 185.546875 117.546875 L 185.75 95.015625 C 176.945312 92.351562 170.390625 84.160156 170.390625 74.328125 C 170.390625 62.449219 180.222656 52.820312 192.101562 52.820312 C 203.980469 52.820312 213.8125 62.449219 213.8125 74.328125 C 213.8125 84.160156 207.050781 92.558594 198.039062 95.21875 L 197.835938 117.546875 L 265.835938 117.546875 C 298.199219 117.546875 324.621094 143.96875 324.621094 176.535156 L 324.621094 272.59375 C 324.621094 304.957031 298.199219 331.171875 265.835938 331.171875 Z M 136.390625 238.183594 C 118.980469 238.183594 105.257812 224.460938 105.257812 207.257812 C 105.257812 189.847656 118.980469 176.125 136.390625 176.125 C 153.800781 176.125 167.316406 189.847656 167.316406 207.257812 C 167.316406 224.460938 153.800781 238.183594 136.390625 238.183594 Z M 136.390625 188.414062 C 125.738281 188.414062 117.546875 196.605469 117.546875 207.257812 C 117.546875 217.703125 125.738281 225.894531 136.390625 225.894531 C 146.835938 225.894531 155.234375 217.703125 155.234375 207.257812 C 155.234375 196.605469 146.835938 188.414062 136.390625 188.414062 Z M 247.605469 236.957031 C 230.199219 236.957031 216.269531 223.027344 216.269531 205.824219 C 216.269531 188.617188 230.199219 174.691406 247.605469 174.691406 C 264.605469 174.691406 278.535156 188.617188 278.535156 205.824219 C 278.535156 223.027344 264.605469 236.957031 247.605469 236.957031 Z M 247.605469 186.980469 C 236.957031 186.980469 228.558594 195.582031 228.558594 205.824219 C 228.558594 216.269531 236.957031 224.871094 247.605469 224.871094 C 258.054688 224.871094 266.246094 216.269531 266.246094 205.824219 C 266.246094 195.171875 257.847656 186.980469 247.605469 186.980469 Z M 189.644531 274.234375 C 177.96875 274.234375 167.726562 268.703125 161.992188 263.789062 C 159.328125 261.535156 159.125 257.4375 161.378906 255.183594 C 163.628906 252.726562 167.316406 252.316406 169.980469 254.777344 C 171.824219 256.414062 189.644531 270.546875 206.644531 254.980469 C 209.101562 252.726562 212.789062 252.726562 215.449219 255.183594 C 217.703125 257.847656 217.703125 261.535156 215.246094 263.992188 C 206.644531 271.367188 197.835938 274.234375 189.644531 274.234375 Z M 189.644531 274.234375 " fill-opacity="1" fill-rule="evenodd"/></g><g clip-path="url(#f60e420036)"><path fill="#ff3131" d="M 46.679688 265.425781 L 44.21875 265.425781 C 29.472656 265.425781 17.183594 253.339844 17.183594 238.390625 L 17.183594 196.605469 C 17.183594 181.65625 29.472656 169.363281 44.21875 169.363281 L 47.085938 169.363281 C 46.882812 171.617188 46.679688 174.074219 46.679688 176.535156 Z M 46.679688 265.425781 " fill-opacity="1" fill-rule="evenodd"/></g><g clip-path="url(#a16e1879c4)"><path fill="#ff3131" d="M 339.367188 265.425781 L 336.910156 265.425781 L 336.910156 176.535156 C 336.910156 173.871094 336.703125 171.414062 336.5 169.160156 L 339.367188 169.160156 C 354.523438 169.160156 366.8125 181.246094 366.8125 196.402344 L 366.8125 238.390625 C 366.8125 253.546875 354.523438 265.425781 339.367188 265.425781 Z M 339.367188 265.425781 " fill-opacity="1" fill-rule="evenodd"/></g><path stroke-linecap="butt" transform="matrix(0.75, 0, 0, 0.75, 140.685757, 294.527115)" fill="none" stroke-linejoin="miter" d="M 0.00232418 3.500305 L 163.840879 3.500305 " stroke="#ff3131" stroke-width="7" stroke-opacity="1" stroke-miterlimit="4"/></svg>